<?xml version="1.0" encoding="utf-8"?>
<svg version="1.1" id="Layer_1" xmlns="http://www.w3.org/2000/svg" xmlns:xlink="http://www.w3.org/1999/xlink" x="0px" y="0px"
	 viewBox="0 0 32.72 54.16" style="enable-background:new 0 0 32.72 54.16;" xml:space="preserve">
<g>
	<path style="fill:#F8C421;" d="M2.86,48.47"/>
	<path style="fill:#ECE4CF;" d="M18.9,22.44c3.35-5.99,4.81-11.53,3.61-18.83c-0.13-0.77-0.28-1.53-0.46-2.28
		c-0.2-0.87-1.04-1.45-1.94-1.3c-0.28,0.05-0.74,0.31-0.74,0.31L13.9,5.05c-2.25,1.94-0.63,9.53,0.87,15.94
		C12.95,15.57,9.46,10.67,4.44,7.13C3.88,6.73,3.3,6.36,2.72,6C2.04,5.59,1.16,5.76,0.69,6.42c-0.14,0.2-0.26,0.66-0.26,0.66
		L0,13.46c-0.17,2.43,5.65,6.58,10.46,9.6c0.05-0.03,0.09-0.06,0.14-0.09C13.2,21.34,16.31,21.24,18.9,22.44"/>
	<path style="fill:#1D1D1B;" d="M5.47,31.47C5.47,31.47,5.47,31.47,5.47,31.47c0.15-0.28,0.3-0.56,0.46-0.83c0,0,0.8-1.48,2.3-3.14
		c0.52-0.57,1.07-1.11,1.65-1.61c3.08-2.65,7.64-2.61,10.68,0.06c0,0,0-0.01-0.01-0.01c-0.02-0.38,0.03-0.76,0.17-1.14
		c0.54-1.49,2.19-2.26,3.68-1.71c0.85,0.31,1.46,0.98,1.74,1.77v0c0.09,0.28,0.17,0.57,0.24,0.86c1.02-0.2,2.05-0.22,3.1-0.06
		c1.1,0.16,2.15,0.52,3.12,1.06c0.11,0.06,0.15,0.2,0.09,0.31c-0.06,0.11-0.2,0.15-0.31,0.09c-0.92-0.51-1.92-0.85-2.97-1
		c-0.99-0.15-1.98-0.13-2.94,0.06c0.06,0.33,0.1,0.66,0.12,0.99c0.12,0.01,0.24,0.03,0.35,0.05c1.08,0.16,2.11,0.51,3.07,1.02
		c0.11,0.06,0.15,0.2,0.09,0.31c-0.06,0.11-0.2,0.15-0.31,0.09c-0.91-0.49-1.89-0.82-2.91-0.97c-0.09-0.01-0.18-0.02-0.27-0.04
		c0.01,0.71-0.06,1.43-0.22,2.15v0c-0.02,0.09-0.04,0.17-0.08,0.26c-0.39,1.06-1.55,1.6-2.61,1.22c-0.3-0.11-0.56-0.28-0.77-0.5
		c-0.21-0.23-0.41-0.46-0.6-0.71c0-0.09-0.01-0.18-0.01-0.27c-0.06,1.06-0.49,2.1-1.31,2.9c-1.75,1.73-4.57,1.71-6.29-0.04
		c-2.28-2.32-4.6-2.33-4.6-2.33c-1.16-0.07-2.36,0.22-3.42,0.88c-0.29,0.18-0.56,0.38-0.8,0.6c-0.09,0.08-0.21,0.1-0.32,0.04
		C5.45,31.78,5.39,31.61,5.47,31.47"/>
	<path style="fill:#1D1D1B;" d="M5.8,29.06"/>
	<path style="fill:#1D1D1B;" d="M8.57,35.99c-1.45-0.2-2.88-0.15-4.25,0.12c1.41-2.23,3.47-3.6,5.69-3.48
		c3.17,0.17,5.66,3.33,6.27,7.49C14.28,37.94,11.62,36.42,8.57,35.99"/>
	<path style="fill:#1D1D1B;" d="M7.59,42.86c-1.77-0.25-3.51-0.11-5.16,0.34c0-0.33,0-0.67,0.02-1.01c0.05-0.83,0.17-1.63,0.35-2.39
		c1.68-0.49,3.46-0.63,5.28-0.38c3.31,0.47,6.16,2.21,8.19,4.7c-0.16,1.09-0.43,2.12-0.8,3.06C13.45,44.89,10.73,43.3,7.59,42.86"/>
	<path style="fill:#1D1D1B;" d="M7.1,46.29c2.69,0.38,5.08,1.6,6.97,3.39c-0.01,0.01-0.01,0.02-0.02,0.02
		c-0.01,0.01-0.02,0.02-0.02,0.03c-0.03,0.04-0.06,0.08-0.1,0.12c-0.01,0.01-0.02,0.02-0.03,0.03c-0.03,0.04-0.06,0.08-0.1,0.12
		c-0.01,0.01-0.02,0.02-0.03,0.03c-0.03,0.04-0.07,0.08-0.1,0.12c-0.01,0.01-0.02,0.02-0.02,0.02c-0.04,0.04-0.07,0.08-0.11,0.12
		c0,0,0,0,0,0.01c-0.03,0.03-0.06,0.06-0.09,0.09c-0.11,0.12-0.23,0.24-0.35,0.35c-0.02,0.02-0.04,0.04-0.06,0.06
		c-0.01,0.01-0.02,0.02-0.03,0.03c-0.03,0.03-0.06,0.06-0.09,0.08c-0.02,0.02-0.03,0.03-0.05,0.04c-0.03,0.03-0.06,0.05-0.09,0.08
		c-0.02,0.02-0.04,0.03-0.06,0.05c-0.03,0.02-0.06,0.05-0.09,0.07c-0.02,0.02-0.04,0.03-0.06,0.05c-0.03,0.02-0.06,0.04-0.09,0.07
		c-0.02,0.02-0.04,0.03-0.06,0.05c-0.03,0.02-0.06,0.04-0.09,0.06c-0.02,0.02-0.04,0.03-0.07,0.05c-0.03,0.02-0.06,0.04-0.09,0.06
		c-0.02,0.02-0.05,0.03-0.07,0.05c-0.03,0.02-0.06,0.04-0.09,0.06c-0.02,0.01-0.05,0.03-0.07,0.04c-0.03,0.02-0.06,0.04-0.09,0.05
		c-0.02,0.01-0.05,0.03-0.07,0.04c-0.03,0.02-0.06,0.04-0.09,0.05c-0.02,0.01-0.05,0.02-0.07,0.04c-0.03,0.02-0.06,0.03-0.09,0.05
		c0.27,0.34,0.57,0.66,0.88,0.96c0.18,0.16,0.28,0.4,0.24,0.65c-0.06,0.42-0.46,0.72-0.9,0.67C9,53.82,6.46,52.41,4.76,50.3
		c-0.03-0.03-0.05-0.06-0.08-0.09c0-0.01-0.01-0.01-0.01-0.02c-0.02-0.03-0.04-0.05-0.07-0.08c0-0.01-0.01-0.01-0.01-0.02
		C4.53,50,4.46,49.92,4.4,49.83c0.01,0,0.01,0,0.02-0.01c-0.68-0.95-1.22-2.11-1.56-3.41C4.23,46.14,5.66,46.09,7.1,46.29"/>
	<path style="fill:#F8C421;" d="M8.08,39.42c-1.81-0.26-3.6-0.11-5.28,0.38c0.33-1.38,0.85-2.63,1.52-3.69
		c1.37-0.28,2.8-0.33,4.25-0.13c3.06,0.43,5.72,1.95,7.71,4.14c0.13,0.9,0.17,1.84,0.12,2.81c-0.02,0.4-0.07,0.79-0.13,1.18
		C14.23,41.63,11.39,39.89,8.08,39.42"/>
	<path style="fill:#F8C421;" d="M2.86,46.41c-0.26-1-0.41-2.08-0.42-3.21c1.64-0.46,3.39-0.59,5.16-0.34
		c3.14,0.45,5.86,2.03,7.87,4.32c-0.3,0.75-0.67,1.45-1.09,2.07c-0.03,0.05-0.06,0.09-0.09,0.14c-0.01,0.01-0.01,0.02-0.02,0.02
		c-0.02,0.02-0.03,0.04-0.05,0.07c-0.02,0.02-0.03,0.04-0.05,0.07c0,0,0,0,0,0c-0.01,0.01-0.01,0.02-0.02,0.03
		c-0.03,0.03-0.05,0.07-0.08,0.1c-1.89-1.78-4.28-3-6.97-3.39C5.66,46.08,4.23,46.14,2.86,46.41"/>
</g>
</svg>
